<svg xmlns="http://www.w3.org/2000/svg" viewBox="0 0 400 400" width="400" height="400" role="img" aria-hidden="true" fill="none">
  <defs>
    <linearGradient id="b8" x1="0" y1="0" x2="1" y2="1">
      <stop offset="0" stop-color="#2E3644"/><stop offset="1" stop-color="#131924"/>
    </linearGradient>
    <linearGradient id="s8" x1="0" y1="0" x2="0.8" y2="1">
      <stop offset="0" stop-color="#1668E3"/><stop offset="0.55" stop-color="#4FB0FF"/><stop offset="1" stop-color="#67E8F9"/>
    </linearGradient>
    <linearGradient id="g8" x1="0" y1="0" x2="1" y2="1">
      <stop offset="0" stop-color="#ffffff" stop-opacity="0.22"/><stop offset="0.5" stop-color="#ffffff" stop-opacity="0.03"/><stop offset="1" stop-color="#ffffff" stop-opacity="0.14"/>
    </linearGradient>
  </defs>
    <rect x="30" y="66" width="340" height="212" rx="12" fill="url(#b8)"/>
    <rect x="38" y="74" width="324" height="188" rx="6" fill="#0E131B"/>
    <rect x="44" y="80" width="312" height="176" rx="4" fill="url(#s8)"/>
    <g opacity="0.42" fill="#ffffff"><rect x="70" y="112" width="120" height="12" rx="6"/><rect x="70" y="138" width="190" height="8" rx="4"/><rect x="70" y="156" width="150" height="8" rx="4"/><rect x="70" y="192" width="86" height="28" rx="14"/></g>
    <rect x="30" y="66" width="340" height="212" rx="12" fill="url(#g8)"/>
    <rect x="186" y="278" width="28" height="42" fill="#171D28"/>
    <rect x="128" y="318" width="144" height="14" rx="7" fill="url(#b8)"/></svg>